<svg id="visual" viewBox="0 0 900 600" width="900" height="600" xmlns="http://www.w3.org/2000/svg" xmlns:xlink="http://www.w3.org/1999/xlink" version="1.1"><path d="M0 223L45 223L45 97L90 97L90 217L135 217L135 211L180 211L180 133L225 133L225 157L270 157L270 115L315 115L315 181L360 181L360 247L405 247L405 247L450 247L450 199L495 199L495 217L540 217L540 187L585 187L585 133L630 133L630 163L675 163L675 103L720 103L720 121L765 121L765 169L810 169L810 265L855 265L855 223L900 223L900 163L900 0L900 0L855 0L855 0L810 0L810 0L765 0L765 0L720 0L720 0L675 0L675 0L630 0L630 0L585 0L585 0L540 0L540 0L495 0L495 0L450 0L450 0L405 0L405 0L360 0L360 0L315 0L315 0L270 0L270 0L225 0L225 0L180 0L180 0L135 0L135 0L90 0L90 0L45 0L45 0L0 0Z" fill="#fa7268"></path><path d="M0 313L45 313L45 187L90 187L90 313L135 313L135 307L180 307L180 277L225 277L225 253L270 253L270 199L315 199L315 313L360 313L360 331L405 331L405 379L450 379L450 289L495 289L495 349L540 349L540 325L585 325L585 265L630 265L630 277L675 277L675 235L720 235L720 277L765 277L765 271L810 271L810 373L855 373L855 367L900 367L900 301L900 161L900 221L855 221L855 263L810 263L810 167L765 167L765 119L720 119L720 101L675 101L675 161L630 161L630 131L585 131L585 185L540 185L540 215L495 215L495 197L450 197L450 245L405 245L405 245L360 245L360 179L315 179L315 113L270 113L270 155L225 155L225 131L180 131L180 209L135 209L135 215L90 215L90 95L45 95L45 221L0 221Z" fill="#ea5e66"></path><path d="M0 379L45 379L45 277L90 277L90 421L135 421L135 409L180 409L180 391L225 391L225 307L270 307L270 283L315 283L315 433L360 433L360 451L405 451L405 439L450 439L450 343L495 343L495 451L540 451L540 373L585 373L585 355L630 355L630 379L675 379L675 319L720 319L720 355L765 355L765 319L810 319L810 415L855 415L855 415L900 415L900 409L900 299L900 365L855 365L855 371L810 371L810 269L765 269L765 275L720 275L720 233L675 233L675 275L630 275L630 263L585 263L585 323L540 323L540 347L495 347L495 287L450 287L450 377L405 377L405 329L360 329L360 311L315 311L315 197L270 197L270 251L225 251L225 275L180 275L180 305L135 305L135 311L90 311L90 185L45 185L45 311L0 311Z" fill="#d84a64"></path><path d="M0 445L45 445L45 355L90 355L90 469L135 469L135 493L180 493L180 427L225 427L225 349L270 349L270 337L315 337L315 523L360 523L360 523L405 523L405 523L450 523L450 409L495 409L495 523L540 523L540 457L585 457L585 439L630 439L630 469L675 469L675 379L720 379L720 445L765 445L765 421L810 421L810 505L855 505L855 475L900 475L900 499L900 407L900 413L855 413L855 413L810 413L810 317L765 317L765 353L720 353L720 317L675 317L675 377L630 377L630 353L585 353L585 371L540 371L540 449L495 449L495 341L450 341L450 437L405 437L405 449L360 449L360 431L315 431L315 281L270 281L270 305L225 305L225 389L180 389L180 407L135 407L135 419L90 419L90 275L45 275L45 377L0 377Z" fill="#c53762"></path><path d="M0 601L45 601L45 601L90 601L90 601L135 601L135 601L180 601L180 601L225 601L225 601L270 601L270 601L315 601L315 601L360 601L360 601L405 601L405 601L450 601L450 601L495 601L495 601L540 601L540 601L585 601L585 601L630 601L630 601L675 601L675 601L720 601L720 601L765 601L765 601L810 601L810 601L855 601L855 601L900 601L900 601L900 497L900 473L855 473L855 503L810 503L810 419L765 419L765 443L720 443L720 377L675 377L675 467L630 467L630 437L585 437L585 455L540 455L540 521L495 521L495 407L450 407L450 521L405 521L405 521L360 521L360 521L315 521L315 335L270 335L270 347L225 347L225 425L180 425L180 491L135 491L135 467L90 467L90 353L45 353L45 443L0 443Z" fill="#b0235f"></path></svg>